%FSLAX32Y32*%
%MOMM*%
%LNCOPPER1*%
G71*
G01*
%ADD10C, 0.20*%
%ADD11C, 2.00*%
%ADD12C, 0.32*%
%ADD13C, 0.10*%
%LPD*%
G54D10*
X0Y12000D02*
X30000Y12000D01*
X30000Y0D01*
X0Y0D01*
X0Y12000D01*
X7874Y9968D02*
G54D11*
D03*
X7874Y9714D02*
G54D11*
D03*
X7874Y9460D02*
G54D11*
D03*
X7874Y9206D02*
G54D11*
D03*
G54D12*
X6548Y2284D02*
X6530Y2262D01*
X6495Y2251D01*
X6459Y2251D01*
X6424Y2262D01*
X6406Y2284D01*
X6406Y2395D01*
X6424Y2418D01*
X6459Y2429D01*
X6495Y2429D01*
X6530Y2418D01*
X6548Y2395D01*
G54D12*
X6610Y2429D02*
X6610Y2284D01*
X6628Y2262D01*
X6663Y2251D01*
X6699Y2251D01*
X6734Y2262D01*
X6752Y2284D01*
X6752Y2429D01*
G54D12*
X6885Y2251D02*
X6885Y2429D01*
G54D12*
X6814Y2429D02*
X6956Y2429D01*
G54D12*
X7084Y2251D02*
X7084Y2429D01*
G54D12*
X7226Y2251D02*
X7226Y2429D01*
G54D12*
X7084Y2340D02*
X7226Y2340D01*
G54D12*
X7412Y2251D02*
X7288Y2251D01*
X7288Y2429D01*
X7412Y2429D01*
G54D12*
X7288Y2340D02*
X7412Y2340D01*
G54D12*
X7545Y2340D02*
X7598Y2318D01*
X7616Y2295D01*
X7616Y2251D01*
G54D12*
X7474Y2251D02*
X7474Y2429D01*
X7563Y2429D01*
X7598Y2418D01*
X7616Y2395D01*
X7616Y2373D01*
X7598Y2351D01*
X7563Y2340D01*
X7474Y2340D01*
G54D12*
X7802Y2251D02*
X7678Y2251D01*
X7678Y2429D01*
X7802Y2429D01*
G54D12*
X7678Y2340D02*
X7802Y2340D01*
G54D13*
G75*
G01X6858Y2602D02*
G03X6858Y2602I-254J0D01*
G01*
X7874Y8444D02*
G54D11*
D03*
X7874Y8190D02*
G54D11*
D03*
X7874Y7936D02*
G54D11*
D03*
X7874Y7682D02*
G54D11*
D03*
M02*
