%FSLAX32Y32*%
%MOMM*%
%LNSILKSCREEN2*%
G71*
G01*
%ADD10C, 0.20*%
%ADD11C, 0.10*%
%ADD12C, 0.56*%
%LPD*%
G54D10*
X0Y12000D02*
X30000Y12000D01*
X30000Y0D01*
X0Y0D01*
X0Y12000D01*
G54D11*
X5480Y6031D02*
X5480Y10095D01*
X5500Y6031D02*
X5500Y10095D01*
X5520Y6031D02*
X5520Y10095D01*
X5540Y6031D02*
X5540Y10095D01*
X5560Y6031D02*
X5560Y10095D01*
X5580Y6031D02*
X5580Y10095D01*
X5600Y6031D02*
X5600Y10095D01*
X5620Y6031D02*
X5620Y10095D01*
X5640Y6031D02*
X5640Y10095D01*
X5660Y6031D02*
X5660Y10095D01*
X5680Y6031D02*
X5680Y10095D01*
X5700Y6031D02*
X5700Y10095D01*
X5720Y6031D02*
X5720Y10095D01*
X5740Y6031D02*
X5740Y10095D01*
X5760Y6031D02*
X5760Y10095D01*
X5780Y6031D02*
X5780Y10095D01*
X5800Y6031D02*
X5800Y10095D01*
X5820Y6031D02*
X5820Y10095D01*
X5840Y6031D02*
X5840Y10095D01*
X5860Y6031D02*
X5860Y10095D01*
X5880Y6031D02*
X5880Y10095D01*
X5900Y6031D02*
X5900Y10095D01*
X5920Y6031D02*
X5920Y10095D01*
X5940Y6031D02*
X5940Y10095D01*
X5960Y6031D02*
X5960Y10095D01*
X5980Y6031D02*
X5980Y10095D01*
X6000Y6031D02*
X6000Y10095D01*
X6020Y6031D02*
X6020Y10095D01*
X6040Y6031D02*
X6040Y10095D01*
X6060Y6031D02*
X6060Y10095D01*
X6080Y6031D02*
X6080Y10095D01*
X6100Y6031D02*
X6100Y10095D01*
X6120Y6031D02*
X6120Y10095D01*
X6140Y6031D02*
X6140Y10095D01*
X6160Y6031D02*
X6160Y10095D01*
X6180Y6031D02*
X6180Y10095D01*
X6200Y6031D02*
X6200Y10095D01*
X6220Y6031D02*
X6220Y10095D01*
X6240Y6031D02*
X6240Y10095D01*
X6260Y6031D02*
X6260Y10095D01*
X6280Y6031D02*
X6280Y10095D01*
X6300Y6031D02*
X6300Y10095D01*
X6320Y6031D02*
X6320Y10095D01*
X6340Y6031D02*
X6340Y10095D01*
X6360Y6031D02*
X6360Y10095D01*
X6380Y6031D02*
X6380Y10095D01*
X6400Y6031D02*
X6400Y10095D01*
X6420Y6031D02*
X6420Y10095D01*
X6440Y6031D02*
X6440Y10095D01*
X6460Y6031D02*
X6460Y10095D01*
X6480Y6031D02*
X6480Y10095D01*
X6500Y6031D02*
X6500Y10095D01*
X6520Y6031D02*
X6520Y10095D01*
X6540Y6031D02*
X6540Y10095D01*
X6560Y6031D02*
X6560Y10095D01*
X6580Y6031D02*
X6580Y10095D01*
X6600Y6031D02*
X6600Y10095D01*
X6620Y6031D02*
X6620Y10095D01*
X6640Y6031D02*
X6640Y10095D01*
X6660Y6031D02*
X6660Y10095D01*
X6680Y6031D02*
X6680Y10095D01*
X6700Y6031D02*
X6700Y10095D01*
X6720Y6031D02*
X6720Y10095D01*
X6740Y6031D02*
X6740Y10095D01*
X6760Y6031D02*
X6760Y10095D01*
X6780Y6031D02*
X6780Y10095D01*
X6800Y6031D02*
X6800Y10095D01*
X6820Y6031D02*
X6820Y10095D01*
X6840Y6031D02*
X6840Y10095D01*
X6860Y6031D02*
X6860Y10095D01*
X6880Y6031D02*
X6880Y10095D01*
X6900Y6031D02*
X6900Y10095D01*
X6920Y6031D02*
X6920Y10095D01*
X6940Y6031D02*
X6940Y10095D01*
X6960Y6031D02*
X6960Y10095D01*
X6980Y6031D02*
X6980Y10095D01*
X7000Y6031D02*
X7000Y10095D01*
X7020Y6031D02*
X7020Y10095D01*
X7040Y6031D02*
X7040Y10095D01*
X7060Y6031D02*
X7060Y10095D01*
X7080Y6031D02*
X7080Y10095D01*
X7100Y6031D02*
X7100Y10095D01*
X7120Y6031D02*
X7120Y10095D01*
X7140Y6031D02*
X7140Y10095D01*
X7160Y6031D02*
X7160Y10095D01*
X7180Y6031D02*
X7180Y10095D01*
X7200Y6031D02*
X7200Y10095D01*
X7220Y6031D02*
X7220Y10095D01*
X7240Y6031D02*
X7240Y10095D01*
X7260Y6031D02*
X7260Y10095D01*
X7280Y6031D02*
X7280Y10095D01*
X7300Y6031D02*
X7300Y10095D01*
X7320Y6031D02*
X7320Y10095D01*
X7340Y6031D02*
X7340Y10095D01*
X7360Y6031D02*
X7360Y10095D01*
X7380Y6031D02*
X7380Y10095D01*
X7400Y6031D02*
X7400Y10095D01*
X7420Y6031D02*
X7420Y10095D01*
X7440Y6031D02*
X7440Y10095D01*
X7460Y6031D02*
X7460Y10095D01*
X7480Y6031D02*
X7480Y10095D01*
X5461Y6040D02*
X7493Y6040D01*
X5461Y6060D02*
X7493Y6060D01*
X5461Y6080D02*
X7493Y6080D01*
X5461Y6100D02*
X7493Y6100D01*
X5461Y6120D02*
X7493Y6120D01*
X5461Y6140D02*
X7493Y6140D01*
X5461Y6160D02*
X7493Y6160D01*
X5461Y6180D02*
X7493Y6180D01*
X5461Y6200D02*
X7493Y6200D01*
X5461Y6220D02*
X7493Y6220D01*
X5461Y6240D02*
X7493Y6240D01*
X5461Y6260D02*
X7493Y6260D01*
X5461Y6280D02*
X7493Y6280D01*
X5461Y6300D02*
X7493Y6300D01*
X5461Y6320D02*
X7493Y6320D01*
X5461Y6340D02*
X7493Y6340D01*
X5461Y6360D02*
X7493Y6360D01*
X5461Y6380D02*
X7493Y6380D01*
X5461Y6400D02*
X7493Y6400D01*
X5461Y6420D02*
X7493Y6420D01*
X5461Y6440D02*
X7493Y6440D01*
X5461Y6460D02*
X7493Y6460D01*
X5461Y6480D02*
X7493Y6480D01*
X5461Y6500D02*
X7493Y6500D01*
X5461Y6520D02*
X7493Y6520D01*
X5461Y6540D02*
X7493Y6540D01*
X5461Y6560D02*
X7493Y6560D01*
X5461Y6580D02*
X7493Y6580D01*
X5461Y6600D02*
X7493Y6600D01*
X5461Y6620D02*
X7493Y6620D01*
X5461Y6640D02*
X7493Y6640D01*
X5461Y6660D02*
X7493Y6660D01*
X5461Y6680D02*
X7493Y6680D01*
X5461Y6700D02*
X7493Y6700D01*
X5461Y6720D02*
X7493Y6720D01*
X5461Y6740D02*
X7493Y6740D01*
X5461Y6760D02*
X7493Y6760D01*
X5461Y6780D02*
X7493Y6780D01*
X5461Y6800D02*
X7493Y6800D01*
X5461Y6820D02*
X7493Y6820D01*
X5461Y6840D02*
X7493Y6840D01*
X5461Y6860D02*
X7493Y6860D01*
X5461Y6880D02*
X7493Y6880D01*
X5461Y6900D02*
X7493Y6900D01*
X5461Y6920D02*
X7493Y6920D01*
X5461Y6940D02*
X7493Y6940D01*
X5461Y6960D02*
X7493Y6960D01*
X5461Y6980D02*
X7493Y6980D01*
X5461Y7000D02*
X7493Y7000D01*
X5461Y7020D02*
X7493Y7020D01*
X5461Y7040D02*
X7493Y7040D01*
X5461Y7060D02*
X7493Y7060D01*
X5461Y7080D02*
X7493Y7080D01*
X5461Y7100D02*
X7493Y7100D01*
X5461Y7120D02*
X7493Y7120D01*
X5461Y7140D02*
X7493Y7140D01*
X5461Y7160D02*
X7493Y7160D01*
X5461Y7180D02*
X7493Y7180D01*
X5461Y7200D02*
X7493Y7200D01*
X5461Y7220D02*
X7493Y7220D01*
X5461Y7240D02*
X7493Y7240D01*
X5461Y7260D02*
X7493Y7260D01*
X5461Y7280D02*
X7493Y7280D01*
X5461Y7300D02*
X7493Y7300D01*
X5461Y7320D02*
X7493Y7320D01*
X5461Y7340D02*
X7493Y7340D01*
X5461Y7360D02*
X7493Y7360D01*
X5461Y7380D02*
X7493Y7380D01*
X5461Y7400D02*
X7493Y7400D01*
X5461Y7420D02*
X7493Y7420D01*
X5461Y7440D02*
X7493Y7440D01*
X5461Y7460D02*
X7493Y7460D01*
X5461Y7480D02*
X7493Y7480D01*
X5461Y7500D02*
X7493Y7500D01*
X5461Y7520D02*
X7493Y7520D01*
X5461Y7540D02*
X7493Y7540D01*
X5461Y7560D02*
X7493Y7560D01*
X5461Y7580D02*
X7493Y7580D01*
X5461Y7600D02*
X7493Y7600D01*
X5461Y7620D02*
X7493Y7620D01*
X5461Y7640D02*
X7493Y7640D01*
X5461Y7660D02*
X7493Y7660D01*
X5461Y7680D02*
X7493Y7680D01*
X5461Y7700D02*
X7493Y7700D01*
X5461Y7720D02*
X7493Y7720D01*
X5461Y7740D02*
X7493Y7740D01*
X5461Y7760D02*
X7493Y7760D01*
X5461Y7780D02*
X7493Y7780D01*
X5461Y7800D02*
X7493Y7800D01*
X5461Y7820D02*
X7493Y7820D01*
X5461Y7840D02*
X7493Y7840D01*
X5461Y7860D02*
X7493Y7860D01*
X5461Y7880D02*
X7493Y7880D01*
X5461Y7900D02*
X7493Y7900D01*
X5461Y7920D02*
X7493Y7920D01*
X5461Y7940D02*
X7493Y7940D01*
X5461Y7960D02*
X7493Y7960D01*
X5461Y7980D02*
X7493Y7980D01*
X5461Y8000D02*
X7493Y8000D01*
X5461Y8020D02*
X7493Y8020D01*
X5461Y8040D02*
X7493Y8040D01*
X5461Y8060D02*
X7493Y8060D01*
X5461Y8080D02*
X7493Y8080D01*
X5461Y8100D02*
X7493Y8100D01*
X5461Y8120D02*
X7493Y8120D01*
X5461Y8140D02*
X7493Y8140D01*
X5461Y8160D02*
X7493Y8160D01*
X5461Y8180D02*
X7493Y8180D01*
X5461Y8200D02*
X7493Y8200D01*
X5461Y8220D02*
X7493Y8220D01*
X5461Y8240D02*
X7493Y8240D01*
X5461Y8260D02*
X7493Y8260D01*
X5461Y8280D02*
X7493Y8280D01*
X5461Y8300D02*
X7493Y8300D01*
X5461Y8320D02*
X7493Y8320D01*
X5461Y8340D02*
X7493Y8340D01*
X5461Y8360D02*
X7493Y8360D01*
X5461Y8380D02*
X7493Y8380D01*
X5461Y8400D02*
X7493Y8400D01*
X5461Y8420D02*
X7493Y8420D01*
X5461Y8440D02*
X7493Y8440D01*
X5461Y8460D02*
X7493Y8460D01*
X5461Y8480D02*
X7493Y8480D01*
X5461Y8500D02*
X7493Y8500D01*
X5461Y8520D02*
X7493Y8520D01*
X5461Y8540D02*
X7493Y8540D01*
X5461Y8560D02*
X7493Y8560D01*
X5461Y8580D02*
X7493Y8580D01*
X5461Y8600D02*
X7493Y8600D01*
X5461Y8620D02*
X7493Y8620D01*
X5461Y8640D02*
X7493Y8640D01*
X5461Y8660D02*
X7493Y8660D01*
X5461Y8680D02*
X7493Y8680D01*
X5461Y8700D02*
X7493Y8700D01*
X5461Y8720D02*
X7493Y8720D01*
X5461Y8740D02*
X7493Y8740D01*
X5461Y8760D02*
X7493Y8760D01*
X5461Y8780D02*
X7493Y8780D01*
X5461Y8800D02*
X7493Y8800D01*
X5461Y8820D02*
X7493Y8820D01*
X5461Y8840D02*
X7493Y8840D01*
X5461Y8860D02*
X7493Y8860D01*
X5461Y8880D02*
X7493Y8880D01*
X5461Y8900D02*
X7493Y8900D01*
X5461Y8920D02*
X7493Y8920D01*
X5461Y8940D02*
X7493Y8940D01*
X5461Y8960D02*
X7493Y8960D01*
X5461Y8980D02*
X7493Y8980D01*
X5461Y9000D02*
X7493Y9000D01*
X5461Y9020D02*
X7493Y9020D01*
X5461Y9040D02*
X7493Y9040D01*
X5461Y9060D02*
X7493Y9060D01*
X5461Y9080D02*
X7493Y9080D01*
X5461Y9100D02*
X7493Y9100D01*
X5461Y9120D02*
X7493Y9120D01*
X5461Y9140D02*
X7493Y9140D01*
X5461Y9160D02*
X7493Y9160D01*
X5461Y9180D02*
X7493Y9180D01*
X5461Y9200D02*
X7493Y9200D01*
X5461Y9220D02*
X7493Y9220D01*
X5461Y9240D02*
X7493Y9240D01*
X5461Y9260D02*
X7493Y9260D01*
X5461Y9280D02*
X7493Y9280D01*
X5461Y9300D02*
X7493Y9300D01*
X5461Y9320D02*
X7493Y9320D01*
X5461Y9340D02*
X7493Y9340D01*
X5461Y9360D02*
X7493Y9360D01*
X5461Y9380D02*
X7493Y9380D01*
X5461Y9400D02*
X7493Y9400D01*
X5461Y9420D02*
X7493Y9420D01*
X5461Y9440D02*
X7493Y9440D01*
X5461Y9460D02*
X7493Y9460D01*
X5461Y9480D02*
X7493Y9480D01*
X5461Y9500D02*
X7493Y9500D01*
X5461Y9520D02*
X7493Y9520D01*
X5461Y9540D02*
X7493Y9540D01*
X5461Y9560D02*
X7493Y9560D01*
X5461Y9580D02*
X7493Y9580D01*
X5461Y9600D02*
X7493Y9600D01*
X5461Y9620D02*
X7493Y9620D01*
X5461Y9640D02*
X7493Y9640D01*
X5461Y9660D02*
X7493Y9660D01*
X5461Y9680D02*
X7493Y9680D01*
X5461Y9700D02*
X7493Y9700D01*
X5461Y9720D02*
X7493Y9720D01*
X5461Y9740D02*
X7493Y9740D01*
X5461Y9760D02*
X7493Y9760D01*
X5461Y9780D02*
X7493Y9780D01*
X5461Y9800D02*
X7493Y9800D01*
X5461Y9820D02*
X7493Y9820D01*
X5461Y9840D02*
X7493Y9840D01*
X5461Y9860D02*
X7493Y9860D01*
X5461Y9880D02*
X7493Y9880D01*
X5461Y9900D02*
X7493Y9900D01*
X5461Y9920D02*
X7493Y9920D01*
X5461Y9940D02*
X7493Y9940D01*
X5461Y9960D02*
X7493Y9960D01*
X5461Y9980D02*
X7493Y9980D01*
X5461Y10000D02*
X7493Y10000D01*
X5461Y10020D02*
X7493Y10020D01*
X5461Y10040D02*
X7493Y10040D01*
X5461Y10060D02*
X7493Y10060D01*
X5461Y10080D02*
X7493Y10080D01*
G54D11*
X5461Y6031D02*
X7493Y6031D01*
X7493Y10095D01*
X5461Y10095D01*
X5461Y6031D01*
G54D11*
X5440Y4814D02*
X5440Y5902D01*
X5460Y2639D02*
X5460Y5902D01*
X5480Y2639D02*
X5480Y5902D01*
X5500Y2639D02*
X5500Y5902D01*
X5520Y2639D02*
X5520Y5902D01*
X5540Y2639D02*
X5540Y5902D01*
X5560Y2639D02*
X5560Y5903D01*
X5580Y2639D02*
X5580Y5903D01*
X5600Y2639D02*
X5600Y5903D01*
X5620Y2639D02*
X5620Y5903D01*
X5640Y2639D02*
X5640Y5903D01*
X5660Y2639D02*
X5660Y5903D01*
X5680Y2639D02*
X5680Y5903D01*
X5700Y2639D02*
X5700Y5903D01*
X5720Y2639D02*
X5720Y5903D01*
X5740Y2639D02*
X5740Y5903D01*
X5760Y2639D02*
X5760Y5904D01*
X5780Y2639D02*
X5780Y5904D01*
X5800Y2639D02*
X5800Y5904D01*
X5820Y2639D02*
X5820Y5904D01*
X5840Y2639D02*
X5840Y5904D01*
X5860Y2639D02*
X5860Y5904D01*
X5880Y2640D02*
X5880Y5904D01*
X5900Y2640D02*
X5900Y5904D01*
X5920Y2640D02*
X5920Y5904D01*
X5940Y2640D02*
X5940Y5904D01*
X5960Y2640D02*
X5960Y5904D01*
X5980Y2640D02*
X5980Y5905D01*
X6000Y2640D02*
X6000Y5905D01*
X6020Y2640D02*
X6020Y5905D01*
X6040Y2640D02*
X6040Y5905D01*
X6060Y2640D02*
X6060Y5905D01*
X6080Y2640D02*
X6080Y5905D01*
X6100Y2640D02*
X6100Y5905D01*
X6120Y2640D02*
X6120Y5905D01*
X6140Y2640D02*
X6140Y5905D01*
X6160Y2640D02*
X6160Y5905D01*
X6180Y2640D02*
X6180Y5905D01*
X6200Y2640D02*
X6200Y5906D01*
X6220Y2640D02*
X6220Y5906D01*
X6240Y2640D02*
X6240Y5906D01*
X6260Y2640D02*
X6260Y5906D01*
X6280Y2640D02*
X6280Y5906D01*
X6300Y2640D02*
X6300Y5906D01*
X6320Y2640D02*
X6320Y5906D01*
X6340Y2640D02*
X6340Y5906D01*
X6360Y2640D02*
X6360Y5906D01*
X6380Y2640D02*
X6380Y5906D01*
X6400Y2640D02*
X6400Y5906D01*
X6420Y2640D02*
X6420Y5907D01*
X6440Y2640D02*
X6440Y5907D01*
X6460Y2640D02*
X6460Y5907D01*
X6480Y2640D02*
X6480Y5907D01*
X6500Y2640D02*
X6500Y5907D01*
X6520Y2640D02*
X6520Y5907D01*
X6540Y2640D02*
X6540Y5907D01*
X6560Y2640D02*
X6560Y5907D01*
X6580Y2640D02*
X6580Y5907D01*
X6600Y2640D02*
X6600Y5907D01*
X6620Y2640D02*
X6620Y5908D01*
X6640Y2640D02*
X6640Y5908D01*
X6660Y2640D02*
X6660Y5908D01*
X6680Y2640D02*
X6680Y5908D01*
X6700Y2640D02*
X6700Y5908D01*
X6720Y2641D02*
X6720Y5908D01*
X6740Y2641D02*
X6740Y5908D01*
X6760Y2641D02*
X6760Y5908D01*
X6780Y2641D02*
X6780Y5908D01*
X6800Y2641D02*
X6800Y5908D01*
X6820Y2641D02*
X6820Y5908D01*
X6840Y2641D02*
X6840Y5909D01*
X6860Y2641D02*
X6860Y5909D01*
X6880Y2641D02*
X6880Y5909D01*
X6900Y2641D02*
X6900Y5909D01*
X6920Y2641D02*
X6920Y5909D01*
X6940Y2641D02*
X6940Y5909D01*
X6960Y2641D02*
X6960Y5909D01*
X6980Y2641D02*
X6980Y5909D01*
X7000Y2641D02*
X7000Y5909D01*
X7020Y2641D02*
X7020Y5909D01*
X7040Y2641D02*
X7040Y5909D01*
X7060Y2641D02*
X7060Y5910D01*
X7080Y2641D02*
X7080Y5910D01*
X7100Y2641D02*
X7100Y5910D01*
X7120Y2641D02*
X7120Y5910D01*
X7140Y2641D02*
X7140Y5910D01*
X7160Y2641D02*
X7160Y5910D01*
X7180Y2641D02*
X7180Y5910D01*
X7200Y2641D02*
X7200Y5910D01*
X7220Y2641D02*
X7220Y5910D01*
X7240Y2641D02*
X7240Y5910D01*
X7260Y2641D02*
X7260Y5911D01*
X7280Y2641D02*
X7280Y5911D01*
X7300Y2641D02*
X7300Y5911D01*
X7320Y2641D02*
X7320Y5911D01*
X7340Y2641D02*
X7340Y5911D01*
X7360Y2641D02*
X7360Y5911D01*
X7380Y2641D02*
X7380Y5911D01*
X7400Y2641D02*
X7400Y5911D01*
X7420Y2641D02*
X7420Y5911D01*
X7440Y2641D02*
X7440Y5911D01*
X7460Y2641D02*
X7460Y5911D01*
X7480Y2641D02*
X7480Y5912D01*
X7500Y2641D02*
X7500Y5912D01*
X7520Y2641D02*
X7520Y5912D01*
X7540Y2641D02*
X7540Y5912D01*
X7560Y2642D02*
X7560Y5912D01*
X7580Y2642D02*
X7580Y5912D01*
X7600Y2642D02*
X7600Y5912D01*
X7620Y2642D02*
X7620Y5912D01*
X7640Y2642D02*
X7640Y5912D01*
X7660Y2642D02*
X7660Y5912D01*
X7680Y2642D02*
X7680Y5912D01*
X7700Y2642D02*
X7700Y5913D01*
X7720Y2642D02*
X7720Y5913D01*
X7740Y2642D02*
X7740Y5913D01*
X7760Y2642D02*
X7760Y5913D01*
X7780Y2642D02*
X7780Y5913D01*
X7800Y2642D02*
X7800Y5913D01*
X7820Y2642D02*
X7820Y5913D01*
X7840Y2642D02*
X7840Y5913D01*
X7860Y2642D02*
X7860Y5913D01*
X7880Y2642D02*
X7880Y5913D01*
X7900Y2642D02*
X7900Y5914D01*
X7920Y2642D02*
X7920Y5914D01*
X7940Y2642D02*
X7940Y5914D01*
X7960Y2642D02*
X7960Y5914D01*
X7980Y2642D02*
X7980Y5914D01*
X8000Y5602D02*
X8000Y5914D01*
X5440Y2640D02*
X6287Y2640D01*
X5440Y2660D02*
X7981Y2660D01*
X5440Y2680D02*
X7981Y2680D01*
X5440Y2700D02*
X7981Y2700D01*
X5440Y2720D02*
X7981Y2720D01*
X5440Y2740D02*
X7982Y2740D01*
X5440Y2760D02*
X7982Y2760D01*
X5440Y2780D02*
X7982Y2780D01*
X5440Y2800D02*
X7982Y2800D01*
X5440Y2820D02*
X7982Y2820D01*
X5440Y2840D02*
X7982Y2840D01*
X5440Y2860D02*
X7982Y2860D01*
X5440Y2880D02*
X7982Y2880D01*
X5440Y2900D02*
X7982Y2900D01*
X5440Y2920D02*
X7983Y2920D01*
X5440Y2940D02*
X7983Y2940D01*
X5440Y2960D02*
X7983Y2960D01*
X5440Y2980D02*
X7983Y2980D01*
X5440Y3000D02*
X7983Y3000D01*
X5440Y3020D02*
X7983Y3020D01*
X5440Y3040D02*
X7983Y3040D01*
X5440Y3060D02*
X7983Y3060D01*
X5440Y3080D02*
X7984Y3080D01*
X5440Y3100D02*
X7984Y3100D01*
X5440Y3120D02*
X7984Y3120D01*
X5440Y3140D02*
X7984Y3140D01*
X5440Y3160D02*
X7984Y3160D01*
X5440Y3180D02*
X7984Y3180D01*
X5440Y3200D02*
X7984Y3200D01*
X5440Y3220D02*
X7984Y3220D01*
X5440Y3240D02*
X7984Y3240D01*
X5440Y3260D02*
X7985Y3260D01*
X5440Y3280D02*
X7985Y3280D01*
X5440Y3300D02*
X7985Y3300D01*
X5440Y3320D02*
X7985Y3320D01*
X5440Y3340D02*
X7985Y3340D01*
X5440Y3360D02*
X7985Y3360D01*
X5440Y3380D02*
X7985Y3380D01*
X5440Y3400D02*
X7985Y3400D01*
X5440Y3420D02*
X7986Y3420D01*
X5440Y3440D02*
X7986Y3440D01*
X5440Y3460D02*
X7986Y3460D01*
X5440Y3480D02*
X7986Y3480D01*
X5440Y3500D02*
X7986Y3500D01*
X5440Y3520D02*
X7986Y3520D01*
X5440Y3540D02*
X7986Y3540D01*
X5440Y3560D02*
X7986Y3560D01*
X5440Y3580D02*
X7986Y3580D01*
X5440Y3600D02*
X7987Y3600D01*
X5440Y3620D02*
X7987Y3620D01*
X5440Y3640D02*
X7987Y3640D01*
X5440Y3660D02*
X7987Y3660D01*
X5440Y3680D02*
X7987Y3680D01*
X5440Y3700D02*
X7987Y3700D01*
X5440Y3720D02*
X7987Y3720D01*
X5440Y3740D02*
X7987Y3740D01*
X5440Y3760D02*
X7987Y3760D01*
X5440Y3780D02*
X7988Y3780D01*
X5440Y3800D02*
X7988Y3800D01*
X5440Y3820D02*
X7988Y3820D01*
X5440Y3840D02*
X7988Y3840D01*
X5440Y3860D02*
X7988Y3860D01*
X5440Y3880D02*
X7988Y3880D01*
X5440Y3900D02*
X7988Y3900D01*
X5440Y3920D02*
X7988Y3920D01*
X5440Y3940D02*
X7989Y3940D01*
X5440Y3960D02*
X7989Y3960D01*
X5440Y3980D02*
X7989Y3980D01*
X5440Y4000D02*
X7989Y4000D01*
X5440Y4020D02*
X7989Y4020D01*
X5440Y4040D02*
X7989Y4040D01*
X5440Y4060D02*
X7989Y4060D01*
X5440Y4080D02*
X7989Y4080D01*
X5440Y4100D02*
X7989Y4100D01*
X5440Y4120D02*
X7990Y4120D01*
X5440Y4140D02*
X7990Y4140D01*
X5440Y4160D02*
X7990Y4160D01*
X5440Y4180D02*
X7990Y4180D01*
X5440Y4200D02*
X7990Y4200D01*
X5440Y4220D02*
X7990Y4220D01*
X5440Y4240D02*
X7990Y4240D01*
X5440Y4260D02*
X7990Y4260D01*
X5439Y4280D02*
X7991Y4280D01*
X5439Y4300D02*
X7991Y4300D01*
X5439Y4320D02*
X7991Y4320D01*
X5439Y4340D02*
X7991Y4340D01*
X5439Y4360D02*
X7991Y4360D01*
X5439Y4380D02*
X7991Y4380D01*
X5439Y4400D02*
X7991Y4400D01*
X5439Y4420D02*
X7991Y4420D01*
X5439Y4440D02*
X7991Y4440D01*
X5439Y4460D02*
X7992Y4460D01*
X5439Y4480D02*
X7992Y4480D01*
X5439Y4500D02*
X7992Y4500D01*
X5439Y4520D02*
X7992Y4520D01*
X5439Y4540D02*
X7992Y4540D01*
X5439Y4560D02*
X7992Y4560D01*
X5439Y4580D02*
X7992Y4580D01*
X5439Y4600D02*
X7992Y4600D01*
X5439Y4620D02*
X7992Y4620D01*
X5439Y4640D02*
X7993Y4640D01*
X5439Y4660D02*
X7993Y4660D01*
X5439Y4680D02*
X7993Y4680D01*
X5439Y4700D02*
X7993Y4700D01*
X5439Y4720D02*
X7993Y4720D01*
X5439Y4740D02*
X7993Y4740D01*
X5439Y4760D02*
X7993Y4760D01*
X5439Y4780D02*
X7993Y4780D01*
X5439Y4800D02*
X7994Y4800D01*
X5439Y4820D02*
X7994Y4820D01*
X5439Y4840D02*
X7994Y4840D01*
X5439Y4860D02*
X7994Y4860D01*
X5439Y4880D02*
X7994Y4880D01*
X5439Y4900D02*
X7994Y4900D01*
X5439Y4920D02*
X7994Y4920D01*
X5439Y4940D02*
X7994Y4940D01*
X5439Y4960D02*
X7994Y4960D01*
X5439Y4980D02*
X7995Y4980D01*
X5439Y5000D02*
X7995Y5000D01*
X5439Y5020D02*
X7995Y5020D01*
X5439Y5040D02*
X7995Y5040D01*
X5439Y5060D02*
X7995Y5060D01*
X5439Y5080D02*
X7995Y5080D01*
X5439Y5100D02*
X7995Y5100D01*
X5439Y5120D02*
X7995Y5120D01*
X5439Y5140D02*
X7996Y5140D01*
X5439Y5160D02*
X7996Y5160D01*
X5439Y5180D02*
X7996Y5180D01*
X5439Y5200D02*
X7996Y5200D01*
X5439Y5220D02*
X7996Y5220D01*
X5439Y5240D02*
X7996Y5240D01*
X5439Y5260D02*
X7996Y5260D01*
X5439Y5280D02*
X7996Y5280D01*
X5439Y5300D02*
X7996Y5300D01*
X5439Y5320D02*
X7997Y5320D01*
X5439Y5340D02*
X7997Y5340D01*
X5439Y5360D02*
X7997Y5360D01*
X5439Y5380D02*
X7997Y5380D01*
X5439Y5400D02*
X7997Y5400D01*
X5439Y5420D02*
X7997Y5420D01*
X5439Y5440D02*
X7997Y5440D01*
X5439Y5460D02*
X7997Y5460D01*
X5439Y5480D02*
X7997Y5480D01*
X5439Y5500D02*
X7998Y5500D01*
X5439Y5520D02*
X7998Y5520D01*
X5439Y5540D02*
X7998Y5540D01*
X5439Y5560D02*
X7998Y5560D01*
X5439Y5580D02*
X7998Y5580D01*
X5439Y5600D02*
X7998Y5600D01*
X5439Y5620D02*
X7998Y5620D01*
X5439Y5640D02*
X7998Y5640D01*
X5439Y5660D02*
X7999Y5660D01*
X5439Y5680D02*
X7999Y5680D01*
X5439Y5700D02*
X7999Y5700D01*
X5439Y5720D02*
X7999Y5720D01*
X5439Y5740D02*
X7999Y5740D01*
X5439Y5760D02*
X7999Y5760D01*
X5439Y5780D02*
X7999Y5780D01*
X5439Y5800D02*
X7999Y5800D01*
X5439Y5820D02*
X7999Y5820D01*
X5439Y5840D02*
X8000Y5840D01*
X5439Y5860D02*
X8000Y5860D01*
X5439Y5880D02*
X8000Y5880D01*
X5439Y5900D02*
X8000Y5900D01*
G54D11*
X5440Y2639D02*
X7981Y2642D01*
X8000Y5914D01*
X5439Y5902D01*
X5440Y2639D01*
G54D12*
X3656Y8290D02*
X3212Y8290D01*
X3212Y8123D01*
X3239Y8057D01*
X3295Y8023D01*
X3350Y8023D01*
X3406Y8057D01*
X3434Y8123D01*
X3434Y8290D01*
G54D12*
X3573Y7634D02*
X3628Y7668D01*
X3656Y7734D01*
X3656Y7801D01*
X3628Y7868D01*
X3573Y7901D01*
X3295Y7901D01*
X3239Y7868D01*
X3212Y7801D01*
X3212Y7734D01*
X3239Y7668D01*
X3295Y7634D01*
G54D12*
X3656Y7512D02*
X3212Y7345D01*
X3656Y7179D01*
G54D12*
X3489Y7445D02*
X3489Y7245D01*
G54D12*
X3573Y7057D02*
X3628Y7024D01*
X3656Y6957D01*
X3656Y6890D01*
X3628Y6824D01*
X3573Y6790D01*
X3434Y6790D01*
X3406Y6790D01*
X3462Y6890D01*
X3462Y6957D01*
X3434Y7024D01*
X3378Y7057D01*
X3295Y7057D01*
X3239Y7024D01*
X3212Y6957D01*
X3212Y6890D01*
X3239Y6824D01*
X3295Y6790D01*
X3434Y6790D01*
G54D12*
X3295Y6401D02*
X3239Y6435D01*
X3212Y6501D01*
X3212Y6568D01*
X3239Y6635D01*
X3295Y6668D01*
X3434Y6668D01*
X3462Y6668D01*
X3406Y6568D01*
X3406Y6501D01*
X3434Y6435D01*
X3489Y6401D01*
X3573Y6401D01*
X3628Y6435D01*
X3656Y6501D01*
X3656Y6568D01*
X3628Y6635D01*
X3573Y6668D01*
X3434Y6668D01*
G54D12*
X3434Y6112D02*
X3434Y6179D01*
X3406Y6246D01*
X3350Y6279D01*
X3295Y6279D01*
X3239Y6246D01*
X3212Y6179D01*
X3212Y6112D01*
X3239Y6046D01*
X3295Y6012D01*
X3350Y6012D01*
X3406Y6046D01*
X3434Y6112D01*
X3462Y6046D01*
X3517Y6012D01*
X3573Y6012D01*
X3628Y6046D01*
X3656Y6112D01*
X3656Y6179D01*
X3628Y6246D01*
X3573Y6279D01*
X3517Y6279D01*
X3462Y6246D01*
X3434Y6179D01*
G54D12*
X3212Y5623D02*
X3212Y5890D01*
X3406Y5890D01*
X3406Y5857D01*
X3378Y5790D01*
X3378Y5723D01*
X3406Y5657D01*
X3462Y5623D01*
X3573Y5623D01*
X3628Y5657D01*
X3656Y5723D01*
X3656Y5790D01*
X3628Y5857D01*
X3573Y5890D01*
G54D11*
X7938Y10095D02*
X8001Y10032D01*
X8001Y9904D01*
X7938Y9841D01*
X7810Y9841D01*
X7747Y9904D01*
X7747Y10032D01*
X7810Y10095D01*
X7938Y10095D01*
G54D11*
X7938Y9841D02*
X8001Y9778D01*
X8001Y9650D01*
X7938Y9587D01*
X7810Y9587D01*
X7747Y9650D01*
X7747Y9778D01*
X7810Y9841D01*
X7938Y9841D01*
G54D11*
X7938Y9587D02*
X8001Y9524D01*
X8001Y9396D01*
X7938Y9333D01*
X7810Y9333D01*
X7747Y9396D01*
X7747Y9524D01*
X7810Y9587D01*
X7938Y9587D01*
G54D11*
X7938Y9333D02*
X8001Y9270D01*
X8001Y9142D01*
X7938Y9079D01*
X7810Y9079D01*
X7747Y9142D01*
X7747Y9270D01*
X7810Y9333D01*
X7938Y9333D01*
G54D11*
X7938Y8571D02*
X8001Y8508D01*
X8001Y8380D01*
X7938Y8317D01*
X7810Y8317D01*
X7747Y8380D01*
X7747Y8508D01*
X7810Y8571D01*
X7938Y8571D01*
G54D11*
X7938Y8317D02*
X8001Y8254D01*
X8001Y8126D01*
X7938Y8063D01*
X7810Y8063D01*
X7747Y8126D01*
X7747Y8254D01*
X7810Y8317D01*
X7938Y8317D01*
G54D11*
X7938Y8063D02*
X8001Y8000D01*
X8001Y7872D01*
X7938Y7809D01*
X7810Y7809D01*
X7747Y7872D01*
X7747Y8000D01*
X7810Y8063D01*
X7938Y8063D01*
G54D11*
X7938Y7809D02*
X8001Y7746D01*
X8001Y7618D01*
X7938Y7555D01*
X7810Y7555D01*
X7747Y7618D01*
X7747Y7746D01*
X7810Y7809D01*
X7938Y7809D01*
M02*
