; Drill file
; Format: 2.4 (00.0000)
M48
INCH
T01C0.024
T02C0.031
%
G05
G90
T01
X022000Y012240
X022000Y013240
X022000Y014240
X022000Y015240
X022000Y016240
X022000Y017240
X022000Y018240
X022000Y019240
X022000Y020240
X022000Y021240
X022000Y022240
X022000Y023240
X022000Y024240
X022000Y025240
X022000Y026240
X022000Y027240
X022000Y028240
X022000Y029240
X022000Y030240
X022000Y031240
X022000Y032240
X022000Y033240
X022000Y034240
X022000Y035240
X023000Y035240
X024000Y035240
X025000Y035240
X025000Y034240
X024000Y034240
X023000Y034240
X023000Y033240
X024000Y033240
X025000Y033240
X025000Y032240
X024000Y032240
X023000Y032240
X023000Y031240
X024000Y031240
X025000Y031240
X025000Y030240
X024000Y030240
X023000Y030240
X023000Y029240
X024000Y029240
X025000Y029240
X025000Y028240
X024000Y028240
X023000Y028240
X023000Y027240
X024000Y027240
X025000Y027240
X025000Y026240
X024000Y026240
X023000Y026240
X023000Y025240
X024000Y025240
X025000Y025240
X025000Y024240
X024000Y024240
X023000Y024240
X023000Y023240
X024000Y023240
X025000Y023240
X025000Y022240
X024000Y022240
X023000Y022240
X023000Y021240
X024000Y021240
X025000Y021240
X025000Y020240
X024000Y020240
X023000Y020240
X023000Y019240
X024000Y019240
X025000Y019240
X025000Y018240
X024000Y018240
X023000Y018240
X023000Y017240
X024000Y017240
X025000Y017240
X025000Y016240
X024000Y016240
X023000Y016240
X023000Y015240
X024000Y015240
X025000Y015240
X025000Y014240
X024000Y014240
X023000Y014240
X023000Y013240
X024000Y013240
X025000Y013240
X025000Y012240
X024000Y012240
X023000Y012240
X028000Y012240
X028000Y013240
X028000Y014240
X028000Y015240
X028000Y016240
X028000Y017240
X028000Y018240
X028000Y019240
X028000Y020240
X028000Y021240
X028000Y022240
X028000Y023240
X028000Y024240
X028000Y025240
X028000Y026240
X028000Y027240
X028000Y028240
X028000Y029240
X028000Y030240
X028000Y031240
X028000Y032240
X028000Y033240
X028000Y034240
X028000Y035240
X028000Y036240
X028000Y037240
X028000Y038240
X028000Y039240
X028000Y040240
X029000Y040240
X030000Y040240
X031000Y040240
X031000Y039240
X030000Y039240
X029000Y039240
X029000Y038240
X030000Y038240
X031000Y038240
X031000Y037240
X030000Y037240
X029000Y037240
X029000Y036240
X030000Y036240
X031000Y036240
X031000Y035240
X030000Y035240
X029000Y035240
X029000Y034240
X030000Y034240
X031000Y034240
X031000Y033240
X030000Y033240
X029000Y033240
X029000Y032240
X030000Y032240
X031000Y032240
X031000Y031240
X030000Y031240
X029000Y031240
X029000Y030240
X030000Y030240
X031000Y030240
X031000Y029240
X030000Y029240
X029000Y029240
X029000Y028240
X030000Y028240
X031000Y028240
X031000Y027240
X030000Y027240
X029000Y027240
X029000Y026240
X030000Y026240
X031000Y026240
X031000Y025240
X030000Y025240
X029000Y025240
X029000Y024240
X030000Y024240
X031000Y024240
X031000Y023240
X030000Y023240
X029000Y023240
X029000Y022240
X030000Y022240
X031000Y022240
X031000Y021240
X030000Y021240
X029000Y021240
X029000Y020240
X030000Y020240
X031000Y020240
X031000Y019240
X030000Y019240
X029000Y019240
X029000Y018240
X030000Y018240
X031000Y018240
X031000Y017240
X030000Y017240
X029000Y017240
X029000Y016240
X030000Y016240
X031000Y016240
X031000Y015240
X030000Y015240
X029000Y015240
X029000Y014240
X030000Y014240
X031000Y014240
X031000Y013240
X030000Y013240
X029000Y013240
X029000Y012240
X030000Y012240
X031000Y012240
X025000Y036240
X024000Y036240
X023000Y036240
X023000Y037240
X023000Y038240
X024000Y038240
X024000Y039240
X025000Y039240
X025000Y038240
X025000Y037240
X024000Y037240
X022000Y037240
X022000Y036240
X022000Y038240
X022000Y039240
X022000Y040240
X023000Y040240
X023000Y041240
X024000Y041240
X024000Y040240
X025000Y040240
X025000Y041240
X023000Y039240
X022000Y041240
X028000Y041240
X029000Y041240
X030000Y041240
X031000Y041240
T02
X009000Y016240
X010000Y016240
X011000Y016240
X012000Y016240
X013000Y016240
X014000Y016240
X009000Y018240
X009000Y019240
X009000Y020240
X009000Y021240
X008000Y021240
X008000Y020240
X008000Y019240
X008000Y018240
X008000Y023240
X008000Y024240
X008000Y025240
X008000Y026240
X009000Y026240
X009000Y025240
X009000Y024240
X009000Y023240
X009000Y029240
X009000Y030240
X009000Y031240
X009000Y032240
X008000Y032240
X008000Y031240
X008000Y030240
X008000Y029240
X008000Y034240
X008000Y035240
X008000Y036240
X008000Y037240
X009000Y037240
X009000Y036240
X009000Y035240
X009000Y034240
X009000Y039240
X010000Y039240
X011000Y039240
X012000Y039240
X013000Y039240
X014000Y039240
X021000Y039240
X021000Y040240
X021000Y041240
X021000Y038240
X021000Y037240
X021000Y036240
X021000Y035240
X021000Y034240
X021000Y033240
X021000Y032240
X021000Y031240
X021000Y030240
X021000Y029240
X021000Y028240
X021000Y027240
X021000Y026240
X021000Y025240
X021000Y024240
X021000Y023240
X021000Y022240
X021000Y021240
X021000Y020240
X021000Y019240
X021000Y018240
X021000Y017240
X021000Y016240
X021000Y015240
X021000Y014240
X021000Y013240
X021000Y012240
X022000Y013240
X022000Y014240
X022000Y015240
X022000Y016240
X022000Y017240
X022000Y018240
X022000Y019240
X022000Y020240
X026000Y020240
X027000Y020240
X027000Y019240
X027000Y018240
X027000Y017240
X027000Y016240
X027000Y016240
X027000Y016240
X026000Y016240
X026000Y016240
X026000Y016240
X026000Y017240
X026000Y018240
X026000Y019240
X026000Y021240
X026000Y022240
X026000Y023240
X027000Y023240
X027000Y022240
X027000Y021240
X027000Y024240
X027000Y024240
X027000Y025240
X027000Y026240
X026000Y026240
X026000Y025240
X026000Y024240
X026000Y024240
X025000Y024240
X024000Y024240
X023000Y024240
X026000Y027240
X026000Y028240
X027000Y028240
X027000Y027240
X027000Y029240
X026000Y029240
X026000Y030240
X026000Y031240
X027000Y031240
X027000Y030240
X027000Y032240
X027000Y033240
X027000Y034240
X027000Y035240
X027000Y036240
X026000Y036240
X026000Y035240
X026000Y034240
X026000Y033240
X026000Y032240
X026000Y037240
X026000Y038240
X027000Y038240
X027000Y037240
X027000Y039240
X027000Y039240
X027000Y040240
X027000Y041240
X026000Y041240
X026000Y040240
X026000Y039240
X026000Y039240
X025000Y039240
X024000Y039240
X031000Y039240
X031000Y038240
X031000Y037240
X031000Y036240
X032000Y036240
X032000Y035240
X032000Y034240
X032000Y033240
X032000Y032240
X032000Y031240
X032000Y030240
X032000Y029240
X032000Y028240
X032000Y027240
X032000Y026240
X032000Y025240
X032000Y024240
X032000Y023240
X032000Y022240
X032000Y021240
X032000Y020240
X032000Y019240
X032000Y018240
X032000Y017240
X032000Y016240
X032000Y015240
X032000Y014240
X032000Y013240
X032000Y012240
X031000Y013240
X031000Y014240
X031000Y015240
X031000Y016240
X031000Y017240
X031000Y018240
X031000Y019240
X031000Y020240
X029000Y016240
X029000Y016240
X028000Y016240
X028000Y016240
X027000Y015240
X027000Y014240
X026000Y014240
X026000Y013240
X027000Y013240
X027000Y012240
X026000Y012240
X026000Y015240
X025000Y016240
X025000Y016240
X024000Y016240
X024000Y016240
X028000Y024240
X031000Y030240
X031000Y031240
X031000Y032240
X031000Y033240
X032000Y037240
X032000Y038240
X032000Y039240
X032000Y040240
X032000Y041240
M30
